<svg xmlns="http://www.w3.org/2000/svg" width="379" height="296" fill="none" viewBox="0 0 379 296">
    <defs/>
    <path fill="#243B91" d="M193.26 120.05l-15.4-3.33 9.81-32.7 15.4 3.34-9.8 32.7z"/>
    <path fill="#8FA9FF" d="M189.35 44.57a21.46 21.46 0 100-42.92 21.46 21.46 0 000 42.92z"/>
    <path fill="#243B91" d="M189.35 42.92a21.46 21.46 0 100-42.92 21.46 21.46 0 000 42.92z"/>
    <path fill="#8FA9FF" d="M206.27 24.03a17.09 17.09 0 10-33.78-5.19 17.09 17.09 0 0033.78 5.19z"/>
    <path stroke="#243B91" stroke-linecap="round" stroke-miterlimit="10" stroke-width="4" d="M181.26 26.41l8.09-5.2 7.5-10.4"/>
    <path fill="#8FA9FF" d="M88.32 44.57a21.46 21.46 0 100-42.92 21.46 21.46 0 000 42.92z"/>
    <path fill="#243B91" d="M88.32 42.92a21.46 21.46 0 100-42.92 21.46 21.46 0 000 42.92z"/>
    <path fill="#8FA9FF" d="M104.84 25.78a17.09 17.09 0 10-33.03-8.74 17.09 17.09 0 0033.03 8.74z"/>
    <path stroke="#243B91" stroke-linecap="round" stroke-miterlimit="10" stroke-width="4" d="M79.82 21.21h8.5l7.51-10.4"/>
    <path fill="#8FA9FF" d="M289.68 43.61a19.82 19.82 0 100-39.64 19.82 19.82 0 000 39.64z"/>
    <path fill="#243B91" d="M289.68 42.09a19.82 19.82 0 100-39.65 19.82 19.82 0 000 39.65z"/>
    <path fill="#8FA9FF" d="M301.46 32.83a15.78 15.78 0 10-23.48-21.1 15.78 15.78 0 0023.48 21.1z"/>
    <path stroke="#243B91" stroke-linecap="round" stroke-miterlimit="10" stroke-width="4" d="M296.62 27.83l-6.94-5.8 6.94-9.6"/>
    <mask id="a" width="122" height="134" x="107" y="41" mask-type="alpha" maskUnits="userSpaceOnUse">
        <path fill="#C4C4C4" d="M0 0h120.34v133.38H0z" transform="matrix(-1 0 0 1 228.06 41.2)"/>
    </mask>
    <g mask="url(#a)">
        <path fill="#243B91" d="M156.52 68.51c3.14 5.37.39 12.83 3.53 18.2 1.31 2.23 3.4 3.93 4.06 6.28a5.46 5.46 0 01-1.97 5.63 5.58 5.58 0 01-6.02.53c-.39-.27-.78-.53-1.17-.66-1.57-.52-3.01.92-4.32 1.83a6.52 6.52 0 01-5.76 1.05c-2.5-.79-3.93-3.27-4.72-5.76-2.22-6.8-.65-14.27 1.44-21.07 1.05-3.4 2.62-7.2 5.9-8.51"/>
        <path fill="#A8BFFF" d="M199.45 98.1s1.44 7.33 1.05 10.34c-.4 3.01-3.4-3.27-3.4-3.27l2.35-7.07zM181.39 144.7c-2.62-.92-14.53-25.66-18.46-33.12-2.62-4.84-6.55-5.89-6.55-5.89-4.84 2.62-5.36 8.64-3.92 13.75 5.89 21.33 24.22 38.6 26.83 38.6-3.4-7.58 2.1-13.34 2.1-13.34z"/>
        <path fill="#A8BFFF" d="M200.63 108.44c-.13 3.66-1.7 7.33-1.97 8.25v.13c-.39.65-.65 1.44-.91 2.35-4.06 13.48-7.07 29.85-8.9 33.25 0 0-3.27 12.57-13.75 2.49-.26-2.62 17.28-39.8 17.28-40.19-2.88-6.02.79-10.6 4.06-12.56.92-.66 1.57-.4 2.22-.13-.26.13 2.1 2.22 1.97 6.4z"/>
        <path fill="#6589E8" d="M154.3 102.68a15.13 15.13 0 0110.33 8.11c.53 1.05 1.05 2.1 1.44 3.28 1.83 4.71 4.45 9.03 6.28 13.74-2.48 2.1-5.62 3.01-8.24 3.93a17 17 0 01-7.6 1.05c-.39 0-.91-.13-1.3-.27a3.72 3.72 0 01-1.31-1.17l-2.36-2.75a7.76 7.76 0 01-1.57-2.62c-.4-1.31 0-2.75.4-4.19"/>
        <path fill="#A8BFFF" d="M143.43 92.73s-.13 6.28.78 6.68c1.97.78 4.06 1.3 4.06 1.3v12.97l-17.15-2.62-11.78-6.55s12.3-4.06 12.44-5.36c.13-1.18-.66-8.12-.66-8.12"/>
        <path fill="#6589E8" d="M112.67 183.44c.65.53 1.57.92 2.61 1.31 11.13 4.32 39.27 3.01 43.85-.91 1.31-.27-2.48-21.86-2.22-25.4.4-6.8 1.44-16.88 1.83-17.54 3.54-3.8 5.9-6.67 6.02-11.13.13-5.5-5.23-11.38-5.89-13.09-2.49-6.8-1.18-11.38-2.62-13.48-5.36-1.57-6.15-2.1-7.85-2.62.13 3.15.52 9.82-4.84 12.05-9.82-1.31-13.49-12.44-13.49-12.44s-6.4 2.23-10.73 3.54c-1.05.26-4.06 3.66-4.97 4.32-.79.52-.53 6.41.26 15.7 1.57 18.85 4.06 48.57-1.96 59.7z"/>
        <path fill="#A8BFFF" d="M155.86 67.34s1.05 12.04-1.05 18.32c-1.57 4.72-7.72 9.03-12.95 9.03-14.4 0-17.02-19.5-16.89-20.55.13-.91 21.2-9.16 21.2-9.16l9.7 2.36z"/>
        <path fill="#243B91" d="M117.38 103.07c-.26-.13-.66-.4-.92-.52-1.7-1.05-3.14-1.97-3.8-3.93-1.04-2.75-1.44-6.8-.13-9.42.92-1.84 2.75-2.88 3.93-4.58 1.7-2.23 2.23-5.11 2.36-7.86.13-2.75 0-5.63.52-8.25 1.05-4.58 2.36-9.03 5.9-12.04 5.75-4.84 17.27-7.72 23.55-2.35 1.18.91 1.31 1.7 2.88 1.96 2.1.26 3.4.52 5.24 1.57 2.1 1.18 4.58 2.88 4.19 5.5-.26 1.83-2.36 4.84-3.93 5.63a4.3 4.3 0 01-2.22.52c-2.5 0-4.45-1.57-6.81-1.3a4.71 4.71 0 00-3.01 1.7c-.92 1.04-.79 2.48-1.7 3.53-1.57 1.57-4.06 1.44-6.03 2.48-.26.14-.65.4-.78.66s-.13.65-.26 1.05c0 1.04-.13 1.96-.13 3-.92-.39-1.05-1.7-1.84-2.48-.78-.66-1.96-.52-2.74.13a4.19 4.19 0 00-1.31 2.62c-.27 1.18.13 2.49.52 3.66.65 2.1 2.36 3.93 3.8 2.5 1.04 1.56-.13 4.05-.13 5.75 0 1.3 0 4.06 1.3 4.97 1.18.79 3.01.27 3.15 2.36 0 1.96-1.84 3.4-3.8 3.66-1.96.27-3.8-.39-5.63-1.04-1.83-.52-3.93-.92-5.63-.26-1.05.39-2.1 1.3-3.14 1.44a5.03 5.03 0 01-3.4-.66z"/>
        <path fill="#A8BFFF" d="M148.14 158.57c-2.62-.91-14.53-25.65-18.46-33.11-2.62-4.85-6.54-5.9-6.54-5.9-4.85 2.62-5.37 8.64-3.93 13.75 6.02 21.47 24.57 38.76 27.57 38.26-3.4-7.6 1.36-13 1.36-13z"/>
        <path fill="#6589E8" d="M118.56 104.12s-7.99 3.27-6.81 14c.26 3.28 8.5 21.6 8.5 21.6s2.89 2.23 7.34.92c4.71-1.44 7.85-5.24 7.85-5.24s-1.83-8.37-2.22-12.7c-.26-2.74 3.4-.65 3.4-.65l-3.01-14.66-15.05-3.27z"/>
        <path fill="#A8BFFF" d="M199.97 104.64l-1.44-5.1s-1.7-6.15-2.88-5.9c-.65.14-.65.66-.39 2.1 0 0 .26 1.7.53 3.01-.79-1.57-2.75-4.84-3.54-4.45-.65.26-.52.79 0 2.23 0 0 .4 1.18.92 2.22-.92-1.57-2.1-3.4-2.75-3.14-.66.26-.52.79 0 2.23 0 0 1.18 3.27 1.7 4.05.13.27.26 1.05.26 1.84-.39-.79-1.04-2.49-1.57-3.15-.52-.65-1.3-.78-1.44 0-.13.8 1.31 3.54 1.44 4.72.13 1.05.4 6.8.4 6.8l1.43-5.23 1.7-2.36v1.31l1.45-1.96c-.13.91-.27 1.57-.27 1.57l4.45-.79zM161.23 134.75a10.04 10.04 0 001.83-5.76c.13-4.84 4.19-8.5 7.33-9.82.53-.65 2.88-3.27 3.4-3.66.66-.53 1.97-1.31 1.97-1.31 1.3-.79 1.3.26.78 1.05-.52.65-1.96 1.96-2.61 2.74-.27.4-.79 1.18-1.31 1.84.26.13.91.39 1.17.65.27.4.14 1.44.14 1.44s.39.13.78.66c.4.52 0 1.83 0 1.83s.4.52.4 1.05c0 .52-1.32 3.14-1.32 3.14a8.6 8.6 0 01-2.09 3.4 10.61 10.61 0 00-3.01 3.8c-6.54 12.43-12.7 27.88-15.18 30.89 0 0-5.63 11.78-14.01-.26.13-1.97 15.84-23.56 21.73-31.68z"/>
    </g>
    <path fill="#DFE7FF" d="M248.96 138.5l-15.7 1.3 2.6 31.1 15.7-1.3-2.6-31.1z"/>
    <path fill="#DFE7FF" d="M251.48 169.57l-13.81.73-1.86-30.73 13.09-1.13 2.58 31.13z"/>
    <path fill="#8FA9FF" d="M252.34 134.58l-15.74.48 1.15 37.95 15.75-.47-1.16-37.96z"/>
    <path fill="#495FB6" d="M253.5 172.47l-16.24.4 2.1-34.51 13.09.16 1.05 33.95z" opacity=".5"/>
    <path fill="#DFE7FF" d="M253.25 172.8h-15.74l2.66-34.04h15.75l-2.66 34.03z"/>
    <path fill="#6589E8" d="M256.8 156.62h-22.77v19.87h22.78v-19.87z"/>
    <path fill="#A8BFFF" d="M256.8 156.62h-22.77v.64h22.78v-.64z"/>
    <path fill="#DFE7FF" d="M276.5 138.5l-15.7 1.3 2.6 31.1 15.7-1.3-2.6-31.1z"/>
    <path fill="#495FB6" d="M279.1 169.57l-13.9.73-1.85-30.73 13.16-1.13 2.59 31.13z" opacity=".5"/>
    <path fill="#DFE7FF" d="M279.96 134.58l-15.74.48 1.15 37.95 15.74-.47-1.15-37.96z"/>
    <path fill="#6A87D4" d="M281.12 172.47l-16.32.4 2.18-34.51 13 .16 1.14 33.95z"/>
    <path fill="#8FA9FF" d="M280.88 172.8h-15.75l2.66-34.04h15.75l-2.67 34.03z"/>
    <path fill="#6589E8" d="M284.35 156.62h-22.78v19.87h22.78v-19.87z"/>
    <path fill="#A8BFFF" d="M284.35 156.62h-22.78v.64h22.78v-.64z"/>
    <path fill="#8FA9FF" d="M304.12 138.5l-15.7 1.3 2.6 31.1 15.7-1.3-2.6-31.1z"/>
    <path fill="#8FA9FF" d="M306.64 169.57l-13.81.73-1.86-30.73 13.08-1.13 2.59 31.13z"/>
    <path fill="#DFE7FF" d="M307.5 134.58l-15.74.48L292.9 173l15.74-.47-1.15-37.96z"/>
    <path fill="#495FB6" d="M308.66 172.47l-16.24.4 2.1-34.51 13.09.16 1.05 33.95z" opacity=".5"/>
    <path fill="#DFE7FF" d="M308.41 172.8h-15.74l2.66-34.04h15.75l-2.67 34.03z"/>
    <path fill="#6589E8" d="M311.97 156.62h-22.78v19.87h22.78v-19.87z"/>
    <path fill="#A8BFFF" d="M311.97 156.62h-22.78v.64h22.78v-.64z"/>
    <path fill="#F0C022" d="M214.54 159.12h-1.04v3.53h1.04v-3.53z"/>
    <path fill="#D7C9BE" d="M214.54 159.12h-1.04v3.53h1.04v-3.53z" opacity=".4"/>
    <path fill="#F0C022" d="M225.2 174c0-.32.09-.72.09-1.05 0-6.35-5.01-12.3-11.23-12.3-6.22 0-11.22 5.95-11.22 12.3 0 .33 0 .73.08 1.05h22.29z"/>
    <path fill="#FFA800" d="M222.62 165.15c-3.96 4.5-13.65 4.75-19.3 4.58-.24 1.05-.4 2.1-.4 3.22 0 .32 0 .73.08 1.05h22.29c0-.32.08-.73.08-1.05a14.03 14.03 0 00-2.75-7.8z" opacity=".4"/>
    <path fill="#F0C022" d="M227.55 175.53h-26.98v-2.58c0-.88.73-1.6 1.62-1.6h23.74c.9 0 1.62.72 1.62 1.6v2.58z"/>
    <path fill="#F6DB83" d="M211.72 162.82c.4.56-.32 1.77-1.62 2.57-1.29.8-2.58.97-2.98.4-.4-.56.32-1.77 1.61-2.57 1.21-.8 2.59-.97 2.99-.4z"/>
    <path fill="#F0C022" d="M216.48 159.6h-4.76a.9.9 0 01-.89-.89c0-.48.4-.88.89-.88h4.76c.49 0 .9.4.9.88-.09.49-.5.89-.9.89z"/>
    <path fill="#243B91" d="M136.61 162.74H69.74a3.23 3.23 0 01-3.23-3.22V113.5a3.23 3.23 0 013.23-3.22h66.87a3.23 3.23 0 013.23 3.22v46.02a3.23 3.23 0 01-3.23 3.22z"/>
    <path fill="#3A51AA" d="M111.98 174.16H94.46l3.23-41.35h11.06l3.23 41.35z"/>
    <path fill="#243B91" d="M132.17 176.17h-57.9v-2.25c0-.89.72-1.61 1.61-1.61h54.68c.88 0 1.61.72 1.61 1.6v2.26z"/>
    <path fill="#6A87D4" d="M54.64 200.77c-5.49-2.34-14.54 18.9-14.54 18.9s7.11-18.74 2.27-20.1c-2.59-.73-4.85 6.19-6.06 10.61 2.42-10.7 8.88-42.64-.8-43.36-2.92-.24-4.13 4.83-4.53 10.54-.73-14-3.07-32.02-10.42-31.06-13.65 1.77 1.62 54.87 1.62 54.87S12 183.71 7.64 186.53c-6.06 3.86 10.1 26.7 10.1 26.7S4.8 199.49 1.17 202.79c-6.46 5.87 15.75 30.97 15.75 30.97l32.46.65s13.09-30.25 5.25-33.63z"/>
    <path fill="#A8BFFF" d="M20.88 237.45s-11.06-14.72-7.5-18.26c2.01-2.01 10.65 4.43 10.65 4.43s-6.7-13.52-3.23-15.45c2.26-1.2 7.43 7 7.43 7s-1.85-16.1 2.26-16.25c6.47-.24 5.5 25.18 5.5 25.18s8.48-10.3 11.46-8.29c4.6 3.14-5.65 21.56-5.65 21.56s-20.92-.32-20.92.08z"/>
    <path fill="#CBAB91" d="M44.87 295.59H21.53L15.88 228h38.36L48.9 291.9a4.04 4.04 0 01-4.04 3.7z"/>
    <path fill="#6589E8" d="M44.87 295.59H21.53L15.88 228h38.36L48.9 291.9a4.04 4.04 0 01-4.04 3.7z"/>
    <path fill="#243B91" d="M42.12 295.59H18.78c-2.1 0-3.87-1.61-4.03-3.7L9.42 228h38.36l-5.66 67.58z"/>
    <path fill="#6589E8" fill-opacity=".5" d="M16.69 228.01H9.48l5.17 63.8a3.97 3.97 0 003.92 3.7h2.82l-4.7-67.5z"/>
    <path fill="#6A87D4" d="M324.22 200.77c5.5-2.34 14.54 18.9 14.54 18.9s-7.11-18.74-2.26-20.1c2.58-.73 4.84 6.19 6.05 10.61-2.42-10.7-8.88-42.64.81-43.36 2.9-.24 4.12 4.83 4.52 10.54.73-14 3.07-32.02 10.42-31.06 13.65 1.77-1.62 54.87-1.62 54.87s10.18-17.46 14.54-14.64c6.06 3.86-10.1 26.7-10.1 26.7s12.93-13.75 16.56-10.45c6.46 5.87-15.75 30.97-15.75 30.97l-32.46.65s-13.08-30.25-5.25-33.63z"/>
    <path fill="#A8BFFF" d="M357.98 237.45s11.06-14.72 7.5-18.26c-2.01-2.01-10.65 4.43-10.65 4.43s6.7-13.52 3.23-15.45c-2.26-1.2-7.43 7-7.43 7s1.86-16.1-2.26-16.25c-6.46-.24-5.5 25.18-5.5 25.18s-8.48-10.3-11.46-8.29c-4.6 3.14 5.65 21.56 5.65 21.56s20.92-.32 20.92.08z"/>
    <path fill="#CBAB91" d="M361.36 295.59h-23.34L332.37 228h38.36l-5.33 63.88a4.04 4.04 0 01-4.04 3.7z"/>
    <path fill="#4462BC" d="M361.36 295.59h-23.34L332.37 228h38.36l-5.33 63.88a4.04 4.04 0 01-4.04 3.7z"/>
    <path fill="#243B91" d="M358.62 295.59h-23.34c-2.1 0-3.88-1.61-4.04-3.7L325.91 228h38.36l-5.65 67.58z"/>
    <path fill="#6589E8" d="M333.12 228.01h-7.21l5.17 63.88a3.97 3.97 0 003.92 3.7h2.82l-4.7-67.58zM316.23 184H62.33v112h253.9V184z"/>
    <path fill="#3A51AA" d="M331.87 174.95H45.96v10.39h285.9v-10.39z"/>
    <path fill="#A0B8FF" d="M299.43 239.97H62.15v30.57h237.28v-30.57z"/>
    <g fill="#88A2FF" opacity=".7">
        <path d="M68.45 270.54h16.32l38.28-30.57h-16.32l-38.28 30.57zM134.68 239.97h-5.1l-38.27 30.57h5.08l38.29-30.57zM202.76 239.97h-16.32l-38.28 30.57h16.32l38.28-30.57zM214.39 239.97h-5.1l-38.27 30.57h5.08l38.29-30.57zM279.72 239.97h-16.31l-38.28 30.57h16.31l38.28-30.57zM291.35 239.97h-5.09l-38.28 30.57h5.09l38.28-30.57z"/>
    </g>
    <path fill="#A8BFFF" d="M295.71 239.97H62.15v3.21h233.56v27.36h3.64v-30.57h-3.64z" opacity=".4"/>
    <defs>
        <clipPath id="clip0">
            <path fill="#fff" d="M70.57 199.43h53.57v22.28H70.57v-22.28z"/>
        </clipPath>
    </defs>
</svg>
